inDegrees=no
num_controls=7
num_derivatives=13
num_iterations=125
num_multipliers=7
num_parameters=0
num_slacks=7
num_states=26
objective=0.445747
objective_accelerations=0.057098
objective_balance=0.003423
objective_effort=0.022685
objective_height=0.357000
objective_ligament=0.005541
solver_duration=1889.853503
status=Solve_Succeeded
success=true
DataType=double
version=3
OpenSimVersion=4.5
endheader
time	/jointset/ground_pelvis/pelvis_tilt/value	/jointset/ground_pelvis/pelvis_tx/value	/jointset/ground_pelvis/pelvis_ty/value	/jointset/hip_l/hip_flexion_l/value	/jointset/hip_l/hip_adduction_l/value	/jointset/hip_l/hip_rotation_l/value	/jointset/back/lumbar_extension/value	/jointset/patellofemoral_l/patellar_flexion_l/value	/jointset/knee_l/knee_flexion_l/value	/jointset/knee_l/knee_adduction_l/value	/jointset/knee_l/knee_rotation_l/value	/jointset/ankle_l/ankle_angle_l/value	/jointset/subtalar_l/subtalar_angle_l/value	/jointset/ground_pelvis/pelvis_tilt/speed	/jointset/ground_pelvis/pelvis_tx/speed	/jointset/ground_pelvis/pelvis_ty/speed	/jointset/hip_l/hip_flexion_l/speed	/jointset/hip_l/hip_adduction_l/speed	/jointset/hip_l/hip_rotation_l/speed	/jointset/back/lumbar_extension/speed	/jointset/patellofemoral_l/patellar_flexion_l/speed	/jointset/knee_l/knee_flexion_l/speed	/jointset/knee_l/knee_adduction_l/speed	/jointset/knee_l/knee_rotation_l/speed	/jointset/ankle_l/ankle_angle_l/speed	/jointset/subtalar_l/subtalar_angle_l/speed	/forceset/tau_hip_flexion_l	/forceset/tau_hip_adduction_l	/forceset/tau_hip_rotation_l	/forceset/tau_knee_flexion_l	/forceset/tau_ankle_angle_l	/forceset/tau_subtalar_angle_l	/forceset/tau_lumbar_extension	lambda_cid13_p0	lambda_cid13_p1	lambda_cid13_p2	lambda_cid13_p3	lambda_cid13_p4	lambda_cid13_p5	lambda_cid14_p0	/jointset/ground_pelvis/pelvis_tilt/accel	/jointset/ground_pelvis/pelvis_tx/accel	/jointset/ground_pelvis/pelvis_ty/accel	/jointset/hip_l/hip_flexion_l/accel	/jointset/hip_l/hip_adduction_l/accel	/jointset/hip_l/hip_rotation_l/accel	/jointset/back/lumbar_extension/accel	/jointset/patellofemoral_l/patellar_flexion_l/accel	/jointset/knee_l/knee_flexion_l/accel	/jointset/knee_l/knee_adduction_l/accel	/jointset/knee_l/knee_rotation_l/accel	/jointset/ankle_l/ankle_angle_l/accel	/jointset/subtalar_l/subtalar_angle_l/accel	gamma_cid13_p0	gamma_cid13_p1	gamma_cid13_p2	gamma_cid13_p3	gamma_cid13_p4	gamma_cid13_p5	gamma_cid14_p0
1	-0.5386040763277669	-0.075137455656149	0.576805500964476	1.815325850850068	-0.4688774065918265	0.0134879475483184	-0.2617938981585381	1.388417182900825	1.38841718290149	-0.08340355413422197	-0.1745294635536809	0.2337761716961355	-0.003891261575429453	-0.01700165660091274	0.01104551076228453	0.002636902145419749	-0.002713888038969391	-0.002626971253148579	0.003438018037347889	-2.545253969503866e-05	0.001581528519159546	0.001581528519159544	-0.005481230051914586	-7.259495291490732e-05	0.02113757938603611	0.009143020602105943	-0.3283874313399975	0.01978623845200864	0.0001455859660768892	-0.305815861659901	0.02974328541215853	0.02793791858356654	0.2814382410180281	-30.2838762231623	-7.367750720404388	1.451858393846054	8.393402253462636	-641.6995313146617	-46.06820891316972	-1.338370959511833	1.511172515380871	0.2241579819646043	1.949818185422643	-6.741528523267645	-0.06726667419048039	-2.334018965011751	-0.02021451955139809	-5.304979776439521	-5.304979776439565	-0.6068302753023851	-0.02765601980186806	-0.755537600392689	-0.5013337853221624	4.624957436754799e-09	1.852232028764163e-08	-1.4297973056258e-08	2.932141968386113e-09	-1.809248201861756e-09	2.477202483280962e-08	2.435705336601839e-09
1.01	-0.5386994568617834	-0.07501584447205752	0.5769292134801792	1.81496292933504	-0.4689060318349936	0.01340440126276903	-0.2617941517241167	1.388167883361531	1.388167883362011	-0.08348589411851633	-0.1745302908117357	0.233949936662198	-0.003823471479227111	-0.002074355907792373	0.01327906502770745	0.02210172502101673	-0.06986176900871383	-0.003094629225802457	-0.0201446861521665	-2.344725755185728e-05	-0.05143984271214713	-0.05143984271214685	-0.0109859599883903	-9.173310958471977e-05	0.01360872746586209	0.004415147761513618	-0.3283052934772333	0.01988671035185711	0.0001283318968129084	-0.3056442696929685	0.02956837849100536	0.02796296107720397	0.2813787893548653	-30.32704558965644	-7.375443581778902	1.458082768282142	8.333407221713797	-641.5607659185957	-46.08132310535827	-1.34344242552826	1.483521777397536	0.2233057595356461	1.944230479506979	-6.700122450495187	-0.03599906555299353	-2.37001376179839	0.0106800498784045	-5.300474731752976	-5.300474731752914	-0.5221769061206172	0.01113392789356255	-0.7525614970980145	-0.4584963984229515	-4.017651112053996e-09	8.819385189476593e-09	2.817614471827315e-08	3.815907024441658e-09	-1.220990519182945e-08	7.386895289167474e-08	-9.949268549339404e-09
1.02	-0.5386455618026444	-0.07487182742317093	0.5772474574528142	1.813928788096981	-0.4689392303992374	0.01308510441214747	-0.2617943308373196	1.387388418322869	1.387388418323164	-0.08362325791283746	-0.1745312741230442	0.2340482126072051	-0.003802956584429729	0.01285346203012485	0.01552668372130508	0.04154319353176351	-0.136957832645153	-0.003541635468461556	-0.04371209497676491	-1.056206415956473e-05	-0.1044515713545234	-0.1044515713545226	-0.01648599205688447	-0.0001038056065303687	0.00603977517495791	-0.0003120196788858613	-0.3282231556144757	0.01998718225170126	0.0001110778275541151	-0.3054726777260355	0.02939347156985224	0.02798800357083571	0.2813193376916962	-30.37637884128621	-7.382005143731025	1.464067348172039	8.298350221633902	-641.5082521006226	-46.07271446197905	-1.358759717663069	1.511275964340246	0.2269708675995379	1.945147312452604	-6.731165056606588	-0.06313632819150129	-2.330959892028534	-0.0180385373015827	-5.303051258653439	-5.303051258653444	-0.6058907017060651	-0.02624288785699058	-0.7635576745387275	-0.501192705283567	-1.173490435047318e-08	1.324373923347963e-09	7.144320380508991e-08	5.251424173803827e-09	-2.207538416869647e-08	1.210828317686501e-07	-2.149272821522764e-08
1.03	-0.5384423402258045	-0.07470523527814474	0.5777599238818798	1.812224093704023	-0.4689766535534102	0.01253038152037252	-0.2617943448421535	1.38607897546687	1.38607897546705	-0.08381553667087323	-0.1745321711410542	0.2340705456134536	-0.003829552834363526	0.02779489101952311	0.0177968602376383	0.06093868956571543	-0.2039570048047781	-0.003924392013902662	-0.06721232619808479	8.406185464780409e-06	-0.1574265167794927	-0.1574265167794935	-0.02196172940171261	-5.556060817939149e-05	-0.00158492712841832	-0.004990102084303902	-0.3278495871843679	0.02015407165375875	6.175950055058423e-05	-0.3051499473206046	0.02929463618789634	0.02807630313070643	0.2810588051704221	-30.38065834127613	-7.432105530659853	1.486334083251245	8.192343387590643	-641.1510756785927	-46.12372708901529	-1.384533859151095	1.486178637402384	0.2278096339261435	1.935033894683158	-6.680691135620886	-0.02306536494150078	-2.356551689763239	0.01196126929135747	-5.293137049176165	-5.293137049176408	-0.5172227555304563	0.02339270472916325	-0.7636892034194807	-0.4485593286959819	-1.944271518776594e-08	-6.148107507759873e-09	1.147183541297871e-07	6.692571446567086e-09	-3.193540214542981e-08	1.682774958580552e-07	-3.302760100131941e-08
